<svg width="32" height="32" viewBox="0 0 32 32" fill="none" xmlns="http://www.w3.org/2000/svg">
<g clip-path="url(#clip0_1427_1310)">
<path d="M29.8204 21.2809C28.1948 19.9746 26.7038 19.3395 25.2618 19.3395C23.1759 19.3395 21.674 20.6665 20.3142 22.0258C20.1579 22.1823 19.9685 22.2552 19.7185 22.2552C18.5727 22.2553 16.5569 20.8204 13.7272 17.9904C10.3983 14.6612 9.13963 12.5437 9.98596 11.6971C12.2803 9.40353 12.9965 7.10432 9.48378 2.73568C8.22625 1.17054 6.9959 0.409851 5.72245 0.409851C4.00506 0.409851 2.69954 1.78265 1.54771 2.99395C1.34857 3.20334 1.16046 3.40114 0.976024 3.58557C-0.325828 4.88731 -0.32516 7.72668 0.977917 11.1813C2.40763 14.9717 5.23051 19.095 8.92669 22.7917C11.7851 25.6499 14.8952 27.9598 17.921 29.5107C20.5627 30.8648 23.1251 31.5902 25.1362 31.5902C25.1364 31.5902 25.1366 31.5902 25.137 31.5902C26.3955 31.5902 27.4178 31.3157 28.0929 30.7574C29.4644 29.6235 32.0171 27.5232 32.0001 25.0284C31.9907 23.6904 31.2575 22.4364 29.8204 21.2809Z" fill="white"/>
</g>
<defs>
<clipPath id="clip0_1427_1310">
<rect width="32" height="32" fill="white"/>
</clipPath>
</defs>
</svg>
