<svg width="100" height="100" viewBox="0 0 100 100" fill="none" xmlns="http://www.w3.org/2000/svg">
<g filter="url(#filter0_d_1436_3700)">
<circle cx="50" cy="50" r="30" fill="#621F2A"/>
<path d="M58.8994 38H41.1005C40.0056 38 39.1179 38.8876 39.1179 39.9826V60.0174C39.1179 61.1124 40.0056 62 41.1005 62H58.8994C59.9944 62 60.8821 61.1124 60.8821 60.0174V39.9826C60.8821 38.8876 59.9944 38 58.8994 38ZM45.5391 58.653C45.5391 58.9551 45.2943 59.2 44.9922 59.2H42.2252C41.9231 59.2 41.6783 58.9551 41.6783 58.653V55.8861C41.6783 55.584 41.9231 55.3391 42.2252 55.3391H44.9922C45.2943 55.3391 45.5391 55.584 45.5391 55.8861V58.653ZM45.5391 52.5313C45.5391 52.8334 45.2943 53.0783 44.9922 53.0783H42.2252C41.9231 53.0783 41.6783 52.8334 41.6783 52.5313V49.7644C41.6783 49.4623 41.9231 49.2174 42.2252 49.2174H44.9922C45.2943 49.2174 45.5391 49.4623 45.5391 49.7644V52.5313ZM51.9304 58.653C51.9304 58.9551 51.6855 59.2 51.3835 59.2H48.6165C48.3144 59.2 48.0696 58.9551 48.0696 58.653V55.8861C48.0696 55.584 48.3144 55.3391 48.6165 55.3391H51.3835C51.6856 55.3391 51.9304 55.584 51.9304 55.8861V58.653ZM51.9304 52.5313C51.9304 52.8334 51.6856 53.0783 51.3835 53.0783H48.6165C48.3144 53.0783 48.0696 52.8334 48.0696 52.5313V49.7644C48.0696 49.4623 48.3144 49.2174 48.6165 49.2174H51.3835C51.6856 49.2174 51.9304 49.4623 51.9304 49.7644V52.5313ZM58.3217 58.653C58.3217 58.9551 58.0769 59.2 57.7748 59.2H55.0078C54.7057 59.2 54.4609 58.9551 54.4609 58.653V55.8861C54.4609 55.584 54.7058 55.3391 55.0078 55.3391H57.7748C58.0769 55.3391 58.3217 55.584 58.3217 55.8861V58.653ZM58.3217 52.5313C58.3217 52.8334 58.0769 53.0783 57.7748 53.0783H55.0078C54.7057 53.0783 54.4609 52.8334 54.4609 52.5313V49.7644C54.4609 49.4623 54.7058 49.2174 55.0078 49.2174H57.7748C58.0769 49.2174 58.3217 49.4623 58.3217 49.7644V52.5313ZM58.3217 45.9052C58.3217 46.2073 58.0769 46.4522 57.7748 46.4522H42.2252C41.9231 46.4522 41.6783 46.2073 41.6783 45.9052V40.9469C41.6783 40.6449 41.9231 40.4 42.2252 40.4H57.7748C58.0769 40.4 58.3217 40.6449 58.3217 40.9469V45.9052Z" fill="white"/>
</g>
<defs>
<filter id="filter0_d_1436_3700" x="0" y="0" width="100" height="100" filterUnits="userSpaceOnUse" color-interpolation-filters="sRGB">
<feFlood flood-opacity="0" result="BackgroundImageFix"/>
<feColorMatrix in="SourceAlpha" type="matrix" values="0 0 0 0 0 0 0 0 0 0 0 0 0 0 0 0 0 0 127 0" result="hardAlpha"/>
<feOffset/>
<feGaussianBlur stdDeviation="10"/>
<feComposite in2="hardAlpha" operator="out"/>
<feColorMatrix type="matrix" values="0 0 0 0 0 0 0 0 0 0 0 0 0 0 0 0 0 0 0.15 0"/>
<feBlend mode="normal" in2="BackgroundImageFix" result="effect1_dropShadow_1436_3700"/>
<feBlend mode="normal" in="SourceGraphic" in2="effect1_dropShadow_1436_3700" result="shape"/>
</filter>
</defs>
</svg>
